{
	"asset":{
		"generator":"Khronos glTF Blender I/O v3.5.30",
		"version":"2.0"
	},
	"extensionsUsed":[
		"KHR_materials_specular",
		"KHR_materials_ior"
	],
	"scene":0,
	"scenes":[
		{
			"name":"Scene",
			"nodes":[
				0
			]
		}
	],
	"nodes":[
		{
			"mesh":0,
			"name":"Cube"
		}
	],
	"materials":[
		{
			"doubleSided":true,
			"extensions":{
				"KHR_materials_specular":{
					"specularColorTexture":{
						"index":0
					}
				},
				"KHR_materials_ior":{
					"ior":1.4500000476837158
				}
			},
			"name":"shield_front",
			"normalTexture":{
				"index":1
			},
			"pbrMetallicRoughness":{
				"baseColorTexture":{
					"index":2
				},
				"metallicFactor":0.10000000149011612,
				"roughnessFactor":0.8272727131843567
			}
		},
		{
			"doubleSided":true,
			"extensions":{
				"KHR_materials_specular":{
					"specularColorFactor":[
						1.9833172235651237,
						1.9833172235651237,
						1.9833172235651237
					]
				},
				"KHR_materials_ior":{
					"ior":1.4500000476837158
				}
			},
			"name":"shield_side",
			"pbrMetallicRoughness":{
				"baseColorFactor":[
					0.11457204073667526,
					0.015598753467202187,
					0.018946079537272453,
					1
				],
				"metallicFactor":0.12272727489471436,
				"roughnessFactor":0.26818183064460754
			}
		},
		{
			"doubleSided":true,
			"extensions":{
				"KHR_materials_specular":{
					"specularColorFactor":[
						1.142563255349089,
						1.142563255349089,
						1.142563255349089
					]
				},
				"KHR_materials_ior":{
					"ior":1.4500000476837158
				}
			},
			"name":"shield_back",
			"pbrMetallicRoughness":{
				"baseColorFactor":[
					0.23699502646923065,
					0.22283710539340973,
					0.2271333485841751,
					1
				],
				"metallicFactor":0.7863636016845703,
				"roughnessFactor":0.7954545617103577
			}
		},
		{
			"doubleSided":true,
			"extensions":{
				"KHR_materials_specular":{
					"specularColorFactor":[
						0.2263568593418445,
						0.2263568593418445,
						0.2263568593418445
					]
				},
				"KHR_materials_ior":{
					"ior":1.4500000476837158
				}
			},
			"name":"shield_handle",
			"pbrMetallicRoughness":{
				"baseColorFactor":[
					0.03222247213125229,
					0.017321422696113586,
					0.002584356116130948,
					1
				],
				"metallicFactor":0.013636363670229912,
				"roughnessFactor":0.8818181753158569
			}
		}
	],
	"meshes":[
		{
			"name":"Cube",
			"primitives":[
				{
					"attributes":{
						"POSITION":0,
						"TEXCOORD_0":1,
						"NORMAL":2
					},
					"indices":3,
					"material":0
				},
				{
					"attributes":{
						"POSITION":4,
						"TEXCOORD_0":5,
						"NORMAL":6
					},
					"indices":7,
					"material":1
				},
				{
					"attributes":{
						"POSITION":8,
						"TEXCOORD_0":9,
						"NORMAL":10
					},
					"indices":11,
					"material":2
				},
				{
					"attributes":{
						"POSITION":12,
						"TEXCOORD_0":13,
						"NORMAL":14
					},
					"indices":15,
					"material":3
				}
			]
		}
	],
	"textures":[
		{
			"sampler":0,
			"source":0
		},
		{
			"sampler":0,
			"source":1
		},
		{
			"sampler":0,
			"source":2
		}
	],
	"images":[
		{
			"bufferView":4,
			"mimeType":"image/png",
			"name":"Image"
		},
		{
			"bufferView":5,
			"mimeType":"image/jpeg",
			"name":"jellyfish_icon_normal"
		},
		{
			"bufferView":6,
			"mimeType":"image/jpeg",
			"name":"jellyfish_icon"
		}
	],
	"accessors":[
		{
			"bufferView":0,
			"componentType":5126,
			"count":224,
			"max":[
				0.19892117381095886,
				1,
				1.3000000715255737
			],
			"min":[
				0.01767117902636528,
				-1.399999976158142,
				-1.3000000715255737
			],
			"type":"VEC3"
		},
		{
			"bufferView":1,
			"componentType":5126,
			"count":224,
			"type":"VEC2"
		},
		{
			"bufferView":2,
			"componentType":5126,
			"count":224,
			"type":"VEC3"
		},
		{
			"bufferView":3,
			"componentType":5123,
			"count":420,
			"type":"SCALAR"
		},
		{
			"bufferView":7,
			"componentType":5126,
			"count":314,
			"max":[
				0.19892117381095886,
				1.001564621925354,
				1.3000000715255737
			],
			"min":[
				-0.07369941473007202,
				-1.399999976158142,
				-1.3000000715255737
			],
			"type":"VEC3"
		},
		{
			"bufferView":8,
			"componentType":5126,
			"count":314,
			"type":"VEC2"
		},
		{
			"bufferView":9,
			"componentType":5126,
			"count":314,
			"type":"VEC3"
		},
		{
			"bufferView":10,
			"componentType":5123,
			"count":594,
			"type":"SCALAR"
		},
		{
			"bufferView":11,
			"componentType":5126,
			"count":236,
			"max":[
				0.1010788232088089,
				0.926564633846283,
				1.1616400480270386
			],
			"min":[
				-0.05119941383600235,
				-1.340000033378601,
				-1.1616400480270386
			],
			"type":"VEC3"
		},
		{
			"bufferView":12,
			"componentType":5126,
			"count":236,
			"type":"VEC2"
		},
		{
			"bufferView":13,
			"componentType":5126,
			"count":236,
			"type":"VEC3"
		},
		{
			"bufferView":14,
			"componentType":5123,
			"count":414,
			"type":"SCALAR"
		},
		{
			"bufferView":15,
			"componentType":5126,
			"count":868,
			"max":[
				0.1010788232088089,
				0.5022472739219666,
				0.6016800403594971
			],
			"min":[
				-0.2681635320186615,
				-0.8000000715255737,
				-0.6016800403594971
			],
			"type":"VEC3"
		},
		{
			"bufferView":16,
			"componentType":5126,
			"count":868,
			"type":"VEC2"
		},
		{
			"bufferView":17,
			"componentType":5126,
			"count":868,
			"type":"VEC3"
		},
		{
			"bufferView":18,
			"componentType":5123,
			"count":1344,
			"type":"SCALAR"
		}
	],
	"bufferViews":[
		{
			"buffer":0,
			"byteLength":2688,
			"byteOffset":0,
			"target":34962
		},
		{
			"buffer":0,
			"byteLength":1792,
			"byteOffset":2688,
			"target":34962
		},
		{
			"buffer":0,
			"byteLength":2688,
			"byteOffset":4480,
			"target":34962
		},
		{
			"buffer":0,
			"byteLength":840,
			"byteOffset":7168,
			"target":34963
		},
		{
			"buffer":0,
			"byteLength":6896,
			"byteOffset":8008
		},
		{
			"buffer":0,
			"byteLength":7928,
			"byteOffset":14904
		},
		{
			"buffer":0,
			"byteLength":5915,
			"byteOffset":22832
		},
		{
			"buffer":0,
			"byteLength":3768,
			"byteOffset":28748,
			"target":34962
		},
		{
			"buffer":0,
			"byteLength":2512,
			"byteOffset":32516,
			"target":34962
		},
		{
			"buffer":0,
			"byteLength":3768,
			"byteOffset":35028,
			"target":34962
		},
		{
			"buffer":0,
			"byteLength":1188,
			"byteOffset":38796,
			"target":34963
		},
		{
			"buffer":0,
			"byteLength":2832,
			"byteOffset":39984,
			"target":34962
		},
		{
			"buffer":0,
			"byteLength":1888,
			"byteOffset":42816,
			"target":34962
		},
		{
			"buffer":0,
			"byteLength":2832,
			"byteOffset":44704,
			"target":34962
		},
		{
			"buffer":0,
			"byteLength":828,
			"byteOffset":47536,
			"target":34963
		},
		{
			"buffer":0,
			"byteLength":10416,
			"byteOffset":48364,
			"target":34962
		},
		{
			"buffer":0,
			"byteLength":6944,
			"byteOffset":58780,
			"target":34962
		},
		{
			"buffer":0,
			"byteLength":10416,
			"byteOffset":65724,
			"target":34962
		},
		{
			"buffer":0,
			"byteLength":2688,
			"byteOffset":76140,
			"target":34963
		}
	],
	"samplers":[
		{
			"magFilter":9728,
			"minFilter":9984,
			"wrapS":33071,
			"wrapT":33071
		}
	],
	"buffers":[
		{
			"byteLength":78828,
			"uri":"data:application/octet-stream;base64,"
		}
	]
}
